 <svg version="1.0" xmlns="http://www.w3.org/2000/svg"  width="300.000000pt" height="300.000000pt" viewBox="0 0 300.000000 300.000000"  preserveAspectRatio="xMidYMid meet">  <g transform="translate(0.000000,300.000000) scale(0.100000,-0.100000)" fill="#a45e0e" stroke="none"> <path d="M0 1500 l0 -1500 1500 0 1500 0 0 1500 0 1500 -1500 0 -1500 0 0 -1500z m1910 1105 c22 -12 27 -11 43 3 35 32 105 -17 80 -57 -17 -27 -7 -31 35 -14 40 17 99 6 122 -22 10 -12 15 -12 39 5 56 42 121 32 160 -25 l24 -35 -18 -56 c-14 -45 -23 -58 -48 -69 -40 -17 -84 -11 -120 16 -26 19 -30 19 -41 4 -15 -21 -82 -36 -112 -25 -40 15 -66 50 -74 98 l-8 47 -1 -60 c-1 -62 -12 -85 -42 -85 -27 0 -39 25 -41 84 -1 39 -6 56 -15 56 -9 0 -13 -17 -13 -59 0 -62 -14 -86 -47 -79 -10 2 -22 13 -28 25 l-11 22 -26 -26 c-34 -33 -96 -36 -137 -5 -28 20 -28 20 -57 1 -40 -26 -118 -26 -147 1 l-22 21 -9 -21 c-13 -30 -61 -27 -82 5 l-17 26 -11 -23 c-13 -26 -55 -36 -67 -16 -5 7 -9 34 -9 60 0 48 -15 71 -31 47 -5 -8 -9 -32 -9 -54 0 -22 -4 -45 -8 -52 -8 -12 -114 -18 -234 -13 -18 0 -44 -1 -56 -4 -17 -4 -31 2 -46 19 -23 24 -24 24 -40 6 -31 -35 -134 -31 -171 5 -19 20 -19 38 0 58 14 13 20 13 56 0 49 -16 49 -17 49 -6 0 5 -18 14 -39 21 -80 23 -101 97 -45 149 31 27 107 31 142 6 21 -15 25 -15 41 0 29 27 71 14 71 -22 0 -28 30 -41 59 -26 38 20 84 17 110 -7 22 -21 23 -21 44 -2 16 14 35 19 65 17 37 -2 42 0 42 20 0 24 17 46 36 46 23 0 44 -31 44 -66 0 -39 3 -41 37 -15 13 11 31 17 39 14 9 -3 28 7 47 24 18 17 45 33 60 37 64 15 147 -37 132 -84 -8 -26 -35 -30 -65 -10 -43 29 -80 13 -86 -37 -3 -33 16 -64 43 -65 26 -2 93 41 93 59 0 8 15 30 34 49 38 38 85 45 124 18 18 -12 26 -13 37 -4 8 7 15 18 15 25 0 16 56 65 73 65 7 -1 23 -7 37 -15z m-222 -674 c97 -21 143 -40 180 -75 19 -17 36 -21 90 -21 40 -1 76 -6 89 -15 57 -37 88 -164 62 -257 -9 -33 -28 -64 -66 -102 l-53 -55 27 -23 c16 -12 31 -22 34 -23 3 0 16 -18 28 -41 47 -83 -15 -177 -145 -219 -21 -7 -43 -16 -49 -20 -44 -34 -385 -53 -555 -31 -144 19 -166 24 -267 64 -83 32 -111 48 -143 83 -35 38 -40 49 -40 92 0 42 4 52 38 85 41 40 97 72 143 82 39 9 41 16 24 65 -18 51 -20 221 -4 286 12 47 67 104 101 104 9 0 20 5 23 10 3 6 21 10 40 10 19 0 36 4 39 9 4 5 75 10 160 10 119 1 173 -3 244 -18z m-910 -1223 c9 -9 17 -9 36 2 21 10 28 11 41 0 9 -7 22 -9 32 -5 23 11 122 17 151 10 21 -5 23 -9 17 -49 -4 -25 -2 -52 4 -64 13 -25 -13 -50 -49 -45 -14 1 -45 4 -70 6 -25 2 -51 7 -58 11 -7 4 -20 2 -28 -5 -12 -10 -20 -10 -34 -1 -13 8 -26 8 -47 0 -67 -25 -124 23 -107 90 13 51 80 82 112 50z m447 -14 c13 -18 14 -18 32 5 22 27 58 22 68 -9 6 -19 8 -18 31 5 28 28 50 31 89 13 19 -9 28 -9 37 0 14 14 57 15 77 3 8 -5 16 -22 17 -38 2 -15 6 -37 9 -48 4 -13 -1 -30 -15 -47 -17 -22 -26 -26 -53 -21 -32 6 -60 7 -107 5 -47 -2 -95 3 -108 12 -9 5 -23 3 -38 -4 -28 -16 -57 1 -46 28 5 15 4 15 -18 -1 -54 -38 -71 -43 -86 -22 -17 23 -18 98 -3 127 9 17 18 20 56 15 27 -3 49 -12 58 -23z m510 12 c17 -12 22 -12 39 0 24 17 60 18 87 3 13 -7 24 -7 32 -1 7 6 99 10 219 10 218 0 240 -4 223 -45 -12 -29 -14 -63 -4 -63 6 0 9 -10 7 -22 -3 -22 -7 -23 -113 -23 -104 0 -110 1 -120 23 -13 30 -32 28 -50 -8 -9 -16 -18 -30 -22 -30 -15 0 -43 34 -43 52 0 16 -3 17 -20 8 -11 -6 -20 -17 -20 -24 0 -27 -25 -37 -49 -20 -20 15 -24 15 -40 0 -19 -18 -43 -17 -78 2 -17 9 -27 9 -50 -3 -41 -22 -58 -19 -87 16 -50 60 -21 135 55 138 8 1 24 -5 34 -13z"/> <path d="M1230 2470 c0 -100 3 -120 15 -120 10 0 15 10 15 28 0 26 15 52 31 52 3 0 18 -18 33 -40 14 -22 33 -40 41 -40 22 0 18 10 -20 55 l-34 40 36 37 c33 33 34 38 16 38 -11 0 -38 -19 -62 -45 l-41 -45 0 80 c0 64 -3 80 -15 80 -12 0 -15 -20 -15 -120z"/> <path d="M1841 2576 c-7 -8 -13 -24 -14 -35 -1 -12 -7 -21 -14 -21 -7 0 -13 -7 -13 -16 0 -8 5 -12 10 -9 6 4 10 -22 10 -69 0 -66 2 -76 18 -76 15 0 17 9 14 75 -4 75 -4 75 22 75 14 0 26 5 26 10 0 6 -12 10 -26 10 -20 0 -25 4 -20 16 3 9 6 18 6 20 0 2 12 4 26 4 16 0 24 5 22 13 -6 18 -53 20 -67 3z"/> <path d="M1946 2568 c-9 -12 -16 -28 -16 -34 0 -7 -6 -15 -12 -18 -10 -5 -10 -7 0 -12 8 -4 12 -30 12 -80 0 -59 3 -74 15 -74 12 0 15 15 15 76 l0 76 25 -6 c18 -5 25 -2 25 9 0 9 -9 15 -26 15 -36 0 -29 34 9 38 35 4 31 26 -5 30 -18 2 -31 -4 -42 -20z"/> <path d="M652 2564 c-18 -12 -22 -24 -20 -52 3 -35 5 -38 63 -57 52 -18 60 -24 60 -45 0 -22 -5 -25 -38 -28 -23 -2 -48 3 -62 12 -12 8 -25 12 -29 9 -38 -39 92 -72 142 -37 18 12 22 24 20 52 -3 35 -5 38 -63 57 -52 18 -60 24 -60 45 0 22 5 25 39 28 21 2 43 -1 49 -7 15 -15 27 -14 27 4 0 34 -88 48 -128 19z"/> <path d="M832 2551 c3 -21 0 -31 -9 -31 -7 0 -13 -7 -13 -15 0 -8 5 -14 11 -12 8 1 11 -17 10 -59 -2 -66 11 -88 50 -82 31 4 36 26 7 30 -21 3 -23 9 -26 62 -3 55 -2 58 17 53 14 -3 21 0 21 9 0 8 -9 14 -21 14 -16 0 -20 5 -17 27 2 21 -2 29 -16 31 -16 3 -18 -1 -14 -27z"/> <path d="M1452 2567 c-69 -39 -75 -137 -11 -191 40 -34 88 -34 126 -2 20 18 25 28 17 36 -7 7 -16 5 -29 -10 -25 -28 -76 -26 -103 3 -29 31 -30 99 -2 127 24 24 82 27 100 5 14 -17 40 -20 40 -6 0 5 -12 19 -26 30 -30 23 -78 27 -112 8z"/> <path d="M690 2521 c0 -6 6 -11 13 -12 29 -2 50 -8 74 -24 18 -12 24 -13 21 -3 -8 24 -108 61 -108 39z"/> <path d="M945 2507 c-26 -19 -4 -29 33 -15 24 9 34 9 46 -1 29 -24 19 -41 -24 -41 -27 0 -47 -7 -60 -20 -24 -24 -24 -29 -4 -58 17 -25 71 -30 93 -9 11 10 14 10 18 0 3 -7 11 -13 18 -13 18 0 8 129 -13 153 -18 21 -80 23 -107 4z m93 -99 c-4 -32 -52 -48 -75 -25 -23 23 -1 47 44 47 30 0 34 -3 31 -22z"/> <path d="M1118 2435 c3 -65 7 -85 18 -85 10 0 14 14 14 58 0 60 11 82 42 82 10 0 18 7 18 15 0 20 -29 19 -53 -2 -19 -17 -20 -17 -14 0 4 12 1 17 -11 17 -15 0 -17 -10 -14 -85z"/> <path d="M1649 2510 c-23 -14 -42 -65 -35 -95 24 -96 166 -80 166 20 0 65 -75 108 -131 75z m81 -30 c11 -11 20 -31 20 -45 0 -28 -32 -65 -55 -65 -23 0 -55 37 -55 65 0 28 32 65 55 65 8 0 24 -9 35 -20z"/> <path d="M1675 2450 c-7 -21 9 -50 26 -50 16 0 23 52 8 61 -21 13 -27 11 -34 -11z"/> <path d="M2050 2495 c-52 -56 -15 -145 60 -145 33 0 70 23 70 43 0 12 -21 7 -36 -8 -22 -21 -50 -19 -74 7 -11 12 -20 25 -20 29 0 3 32 4 70 1 l70 -5 0 30 c0 67 -92 99 -140 48z m103 -17 l22 -23 -32 -3 c-18 -2 -48 -2 -65 0 l-33 3 23 23 c12 12 31 22 42 22 11 0 30 -10 43 -22z"/> <path d="M2236 2489 c-14 -17 -26 -41 -26 -54 0 -38 46 -85 84 -85 32 0 76 23 76 41 0 14 -20 11 -36 -6 -9 -8 -24 -15 -35 -15 -19 0 -59 33 -59 48 0 4 32 6 70 4 69 -4 70 -4 70 21 0 75 -94 105 -144 46z m107 -11 l22 -23 -32 -3 c-18 -2 -48 -2 -65 0 l-33 3 23 23 c12 12 31 22 42 22 11 0 30 -10 43 -22z"/> <path d="M903 2473 c-7 -3 -13 -18 -13 -35 l0 -31 21 27 c21 27 16 48 -8 39z"/> <path d="M1356 2451 c-5 -8 -2 -20 8 -29 17 -17 19 -9 7 22 -6 15 -10 16 -15 7z"/> <path d="M1293 1915 c-91 -16 -168 -57 -182 -97 -21 -60 -25 -199 -7 -267 9 -36 22 -71 28 -78 14 -17 14 -17 -52 -38 -117 -37 -180 -90 -180 -153 0 -28 8 -43 39 -72 197 -188 949 -194 1105 -10 54 65 23 135 -82 187 l-56 27 33 7 c70 15 144 102 157 186 9 59 -13 142 -46 175 -36 35 -89 45 -131 24 -18 -9 -33 -15 -34 -14 -1 2 -7 13 -14 25 -17 33 -126 80 -225 98 -105 18 -254 18 -353 0z m387 -30 c126 -29 217 -92 181 -128 -9 -9 -13 -7 -17 10 -7 25 -91 65 -184 87 -88 21 -283 21 -364 0 -66 -17 -121 -52 -131 -85 -5 -16 -10 -18 -21 -8 -23 19 -16 55 15 82 26 21 94 43 191 61 50 9 257 -3 330 -19z m-105 -56 c-22 -4 -80 -8 -130 -8 -104 -1 -148 -11 -199 -46 -42 -29 -54 -32 -35 -9 18 22 84 54 132 64 23 4 94 8 157 8 86 0 105 -2 75 -9z m164 -25 c2 -2 -7 -4 -22 -4 -14 0 -29 5 -32 10 -6 10 42 4 54 -6z m-269 -22 c0 -4 -39 -13 -87 -19 -49 -6 -99 -14 -113 -17 -17 -4 -14 -1 9 9 19 9 68 20 110 24 42 5 77 9 79 10 1 0 2 -3 2 -7z m565 -16 c24 -24 45 -82 45 -125 0 -75 -56 -161 -124 -192 -39 -18 -96 -26 -96 -13 0 17 23 44 38 44 12 0 13 3 5 8 -8 5 4 16 33 32 55 29 74 62 74 133 0 78 -27 99 -91 73 -13 -6 -17 -1 -17 21 0 35 12 43 66 43 32 0 49 -6 67 -24z m-840 -59 c78 -39 156 -51 330 -52 185 0 248 11 318 59 20 14 37 20 39 15 2 -5 0 -51 -3 -102 -10 -151 -57 -253 -145 -316 -101 -73 -230 -93 -338 -51 -46 18 -55 25 -43 32 11 6 29 3 54 -8 44 -20 188 -23 206 -5 6 6 19 11 30 11 15 0 17 5 13 28 -5 23 -1 30 30 50 34 22 37 22 54 7 17 -16 19 -15 30 5 9 16 9 25 0 35 -9 11 -6 29 14 82 15 40 26 89 26 117 l0 48 -32 -7 c-18 -4 -37 -10 -43 -13 -13 -8 -32 -13 -77 -19 -21 -3 -38 -9 -38 -14 0 -11 62 -12 76 -1 5 4 1 -1 -9 -10 -34 -32 -93 -16 -79 20 4 12 1 14 -14 7 -61 -26 -184 -25 -278 2 -10 3 -16 1 -13 -4 13 -21 116 -36 199 -30 75 6 81 5 58 -8 -16 -9 -55 -14 -110 -15 -95 0 -153 20 -158 56 -2 16 -17 23 -73 37 -84 19 -99 30 -99 70 l0 30 23 -20 c12 -11 36 -28 52 -36z m555 33 c-8 -5 -31 -9 -50 -9 l-35 2 35 7 c19 4 42 8 50 9 13 1 13 0 0 -9z m-403 -16 c-3 -3 -12 -4 -19 -1 -8 3 -5 6 6 6 11 1 17 -2 13 -5z m423 -17 c-41 -20 -61 -22 -210 -21 -91 0 -183 5 -205 12 -33 9 -24 10 55 4 142 -10 279 -6 330 11 66 22 82 19 30 -6z m210 -6 c13 -25 13 -97 0 -122 -6 -10 -29 -28 -51 -39 l-40 -21 5 33 c3 18 8 59 11 91 5 47 11 60 28 67 32 13 35 12 47 -9z m-815 -35 c22 -10 53 -27 68 -38 24 -17 26 -22 15 -36 -7 -8 -13 -25 -13 -36 0 -16 -5 -20 -25 -18 -72 7 -90 14 -91 30 0 9 -2 28 -5 41 -3 18 -1 22 12 17 37 -14 104 -28 116 -23 7 2 -13 10 -44 16 -32 7 -57 17 -55 23 1 6 -5 13 -13 15 -13 4 -13 3 0 -6 13 -9 13 -11 -2 -11 -13 0 -18 8 -18 26 0 14 3 24 8 22 4 -2 25 -12 47 -22z m63 -148 c53 -13 57 -33 5 -24 -55 10 -103 26 -103 35 0 9 34 5 98 -11z m27 -36 c19 2 35 0 35 -4 0 -4 -5 -8 -11 -8 -8 0 -8 -4 1 -15 17 -21 2 -38 -29 -31 -19 5 -22 4 -11 -4 8 -5 29 -10 46 -10 37 0 58 -18 43 -36 -10 -13 7 -54 23 -54 5 0 8 -4 8 -10 0 -17 -44 -11 -70 10 l-25 20 35 -5 c32 -4 31 -4 -7 8 -23 6 -50 20 -60 30 -17 17 -17 17 14 6 23 -7 41 -8 60 -1 26 10 25 10 -17 11 -64 2 -87 10 -105 37 -15 23 -15 23 17 19 l33 -5 -34 11 c-32 10 -60 33 -61 51 0 4 18 1 40 -8 22 -9 56 -14 75 -12z m-44 -117 c70 -74 184 -138 267 -150 80 -11 219 33 279 88 19 17 27 19 48 9 26 -12 34 -45 14 -58 -6 -4 -32 -12 -58 -19 -46 -13 -46 -13 -11 -14 44 -1 81 18 97 49 10 21 13 22 19 7 9 -25 -11 -44 -64 -61 -114 -37 -363 -47 -527 -22 -109 17 -140 28 -156 58 -11 21 -10 20 20 -5 23 -19 43 -27 69 -26 l37 1 -44 11 c-74 20 -81 64 -15 96 42 21 12 25 -45 6 -139 -46 -92 -116 107 -157 83 -17 124 -19 287 -15 158 3 201 8 256 26 104 33 125 74 61 117 -18 13 -38 24 -43 26 -15 5 32 77 50 78 23 0 151 -72 171 -98 28 -35 25 -73 -7 -104 -82 -77 -260 -119 -507 -119 -208 -1 -375 30 -497 92 -118 59 -130 130 -34 189 36 22 130 59 153 60 7 0 40 -29 73 -65z"/> <path d="M1184 1841 c-18 -11 -35 -25 -39 -32 -9 -14 52 20 67 39 14 17 8 15 -28 -7z"/> <path d="M1753 1839 c22 -11 41 -18 44 -15 4 3 -10 13 -30 21 -51 21 -59 18 -14 -6z"/> <path d="M2023 1730 c33 -38 42 -81 27 -126 -7 -19 -10 -38 -7 -41 11 -11 29 76 23 110 -7 37 -40 87 -58 87 -5 0 1 -13 15 -30z"/> <path d="M2006 1503 c-6 -14 -5 -15 5 -6 7 7 10 15 7 18 -3 3 -9 -2 -12 -12z"/> <path d="M1920 1500 c-9 -6 -10 -10 -3 -10 6 0 15 5 18 10 8 12 4 12 -15 0z"/> <path d="M1959 1493 c-13 -15 -12 -15 9 -4 23 12 28 21 13 21 -5 0 -15 -7 -22 -17z"/> <path d="M1895 1470 c-19 -8 -19 -9 2 -9 12 -1 25 4 28 9 7 12 -2 12 -30 0z"/> <path d="M1833 1597 c-6 -43 -22 -101 -36 -128 -13 -27 -19 -48 -13 -46 6 1 24 28 39 58 24 48 28 66 25 125 l-3 69 -12 -78z"/> <path d="M1695 1352 c-16 -10 -32 -18 -34 -19 -2 -2 -2 -6 2 -9 6 -6 77 33 77 42 0 7 -14 3 -45 -14z"/> <path d="M1930 1629 c0 -66 24 -62 28 4 2 37 0 47 -12 47 -12 0 -16 -12 -16 -51z"/> <path d="M1145 1591 c20 -10 20 -10 0 -11 -31 -1 2 -17 50 -24 l40 -5 -40 13 c-22 7 -39 17 -37 22 2 5 -5 10 -15 11 -15 2 -15 1 2 -6z"/> <path d="M1248 1443 c6 -2 18 -2 25 0 6 3 1 5 -13 5 -14 0 -19 -2 -12 -5z"/> <path d="M1056 1383 c-95 -32 -149 -115 -93 -144 21 -11 21 -11 6 7 -31 36 -1 75 96 120 75 36 71 43 -9 17z"/> <path d="M1097 1369 c-9 -6 -15 -14 -12 -20 4 -5 0 -9 -7 -9 -18 -1 -52 -31 -67 -59 -14 -25 -1 -51 26 -51 12 0 12 3 -2 16 -14 14 -14 19 -2 38 8 11 31 31 51 42 21 12 37 25 36 30 0 5 14 12 32 15 l33 6 -35 1 c-19 1 -43 -3 -53 -9z m20 -15 c-3 -3 -12 -4 -19 -1 -8 3 -5 6 6 6 11 1 17 -2 13 -5z"/> <path d="M1904 1350 c52 -26 73 -46 79 -75 6 -34 -17 -62 -63 -76 -50 -15 -43 -31 8 -17 70 19 93 57 67 111 -16 35 -78 77 -111 77 -12 -1 -4 -8 20 -20z"/> <path d="M1850 1352 c0 -6 9 -16 20 -22 27 -15 50 -62 43 -90 -5 -20 -4 -21 15 -11 11 6 24 16 28 22 10 16 -15 55 -45 70 -14 7 -34 20 -43 28 -11 9 -18 10 -18 3z"/> <path d="M1200 1310 c-11 -7 -6 -13 22 -24 20 -9 39 -20 42 -25 8 -13 -61 4 -81 21 -14 11 -16 11 -11 -2 5 -16 96 -53 115 -45 7 2 15 0 18 -5 3 -5 -5 -10 -17 -12 -13 -2 3 -4 35 -4 l58 -1 -43 23 c-50 28 -57 32 -95 61 -20 14 -34 19 -43 13z"/> <path d="M1777 1276 c-3 -8 -21 -17 -39 -22 -18 -4 -27 -9 -20 -12 19 -6 72 18 72 34 0 18 -6 18 -13 0z"/> <path d="M1035 1210 c-20 -7 -20 -7 0 -13 30 -9 75 -16 75 -12 0 12 -58 31 -75 25z"/> <path d="M1605 1210 c-30 -8 -30 -8 8 -9 20 0 37 4 37 9 0 11 -2 11 -45 0z"/> <path d="M1810 1160 c-39 -16 -41 -19 -18 -19 15 -1 30 4 33 9 4 6 14 9 22 8 9 -2 18 3 20 10 6 15 -1 14 -57 -8z"/> <path d="M1115 1162 c16 -15 189 -52 237 -51 34 1 26 4 -39 14 -44 7 -96 17 -115 23 -59 18 -94 24 -83 14z"/> <path d="M1719 1146 c-6 -7 -73 -14 -134 -16 -42 -1 -46 -3 -26 -11 32 -13 191 5 191 22 0 9 -23 13 -31 5z"/> <path d="M1468 1103 c18 -2 45 -2 60 0 15 2 0 4 -33 4 -33 0 -45 -2 -27 -4z"/> <path d="M700 680 c-11 -11 -20 -28 -20 -38 0 -28 29 -62 54 -62 49 0 75 70 38 103 -25 22 -48 21 -72 -3z m60 -14 c18 -23 8 -61 -17 -64 -29 -4 -48 30 -33 58 13 24 33 26 50 6z"/> <path d="M820 640 c0 -48 3 -60 16 -60 13 0 15 7 9 43 l-7 42 31 -35 c16 -19 30 -38 31 -42 0 -5 6 -8 13 -8 8 0 12 19 12 60 0 44 -4 60 -14 60 -9 0 -12 -11 -9 -41 l4 -41 -36 41 c-19 23 -38 41 -42 41 -5 0 -8 -27 -8 -60z"/> <path d="M960 640 l0 -60 45 0 c25 0 45 5 45 10 0 6 -16 10 -35 10 -24 0 -35 5 -35 15 0 10 10 15 30 15 17 0 30 5 30 10 0 6 -13 10 -30 10 -20 0 -30 5 -30 15 0 10 10 15 30 15 17 0 30 5 30 10 0 6 -18 10 -40 10 l-40 0 0 -60z"/> <path d="M1130 640 c0 -33 4 -60 10 -60 6 0 10 9 10 19 0 14 8 21 28 23 54 6 37 78 -19 78 -29 0 -29 -1 -29 -60z m60 20 c0 -13 -7 -20 -20 -20 -13 0 -20 7 -20 20 0 13 7 20 20 20 13 0 20 -7 20 -20z"/> <path d="M1271 678 c-5 -13 -16 -40 -24 -60 -14 -33 -14 -38 -1 -38 7 0 14 7 14 15 0 21 40 19 56 -2 23 -33 24 -7 1 50 -24 62 -33 69 -46 35z m29 -40 c0 -5 -6 -8 -14 -8 -9 0 -12 7 -9 21 4 16 8 17 14 7 5 -7 9 -16 9 -20z"/> <path d="M1376 685 c-9 -9 -16 -20 -16 -24 0 -12 22 -28 44 -32 11 -2 21 -10 24 -18 4 -11 -3 -13 -32 -8 -41 7 -49 -9 -9 -19 30 -8 56 5 61 30 2 11 -8 21 -33 31 -39 17 -38 40 2 30 18 -4 24 -2 21 7 -7 20 -43 21 -62 3z"/> <path d="M1492 688 c-21 -21 -13 -46 18 -57 43 -14 39 -35 -5 -27 -40 8 -50 -10 -11 -20 38 -9 61 -1 64 24 3 18 -3 26 -27 35 -42 15 -42 42 -1 34 31 -7 42 6 14 17 -24 9 -39 7 -52 -6z"/> <path d="M1660 680 c-11 -11 -20 -29 -20 -40 0 -23 33 -60 54 -60 26 0 46 12 46 28 0 12 -3 13 -12 4 -32 -32 -80 8 -58 48 12 23 30 26 48 8 17 -17 28 -2 12 17 -17 21 -46 19 -70 -5z"/> <path d="M1787 682 c-35 -38 -9 -102 41 -102 23 0 52 34 52 62 0 23 -35 58 -58 58 -11 0 -26 -8 -35 -18z m65 -27 c14 -30 -5 -57 -36 -53 -39 6 -29 78 10 78 8 0 19 -11 26 -25z"/> <path d="M1910 640 c0 -33 4 -60 10 -60 6 0 10 11 10 25 0 20 5 25 25 25 14 0 25 5 25 10 0 6 -11 10 -25 10 -16 0 -25 6 -25 15 0 10 10 15 30 15 17 0 30 5 30 10 0 6 -18 10 -40 10 l-40 0 0 -60z"/> <path d="M2018 640 c-2 -43 1 -60 10 -60 6 0 12 11 12 25 0 20 5 25 25 25 14 0 25 5 25 10 0 6 -11 10 -25 10 -16 0 -25 6 -25 15 0 10 10 15 30 15 17 0 30 5 30 10 0 6 -18 10 -39 10 l-39 0 -4 -60z"/> <path d="M2127 693 c-2 -5 -5 -32 -5 -60 l-1 -53 45 0 c24 0 44 5 44 10 0 6 -16 10 -35 10 -24 0 -35 5 -35 15 0 10 10 15 30 15 17 0 30 5 30 10 0 6 -13 10 -30 10 -20 0 -30 5 -30 15 0 11 11 15 36 15 21 0 33 4 29 10 -7 12 -72 14 -78 3z"/> <path d="M2240 640 l0 -60 40 0 c22 0 40 5 40 10 0 6 -13 10 -30 10 -20 0 -30 5 -30 15 0 9 9 15 25 15 14 0 25 5 25 10 0 6 -11 10 -25 10 -16 0 -25 6 -25 15 0 10 10 15 30 15 17 0 30 5 30 10 0 6 -18 10 -40 10 l-40 0 0 -60z"/> </g> </svg> 